
<svg xmlns="http://www.w3.org/2000/svg" height="1.3em"   viewBox="0 0 26.685 26.655">
  <path id="Instagram-Comment-Icon-oij3" d="M111.04,95.549l-1.421-5.311.028-.139a13.447,13.447,0,0,0,.96-9.308,12.989,12.989,0,0,0-9.256-9.48,13.378,13.378,0,0,0-16.5,16.4,14.414,14.414,0,0,0,9.6,9.41,13.778,13.778,0,0,0,3.222.385,13.971,13.971,0,0,0,6.5-1.629l5.439,1.447.149-.008a1.461,1.461,0,0,0,1.054-.572,1.422,1.422,0,0,0,.218-1.193m-3.307-4.8,1.165,4.356-4.215-1.119a2.137,2.137,0,0,0-1.585.2,11.488,11.488,0,0,1-8.184,1.031,12.643,12.643,0,0,1-8.166-8,11.521,11.521,0,0,1,2-10.031,11.261,11.261,0,0,1,8.974-4.4,12.278,12.278,0,0,1,3.127.413,11.049,11.049,0,0,1,7.866,8.058,11.542,11.542,0,0,1-.811,7.966,2.122,2.122,0,0,0-.167,1.524" transform="translate(-84.402 -70.849)"/>
</svg>
